<svg width="393" height="852" viewBox="0 0 393 852" fill="none" xmlns="http://www.w3.org/2000/svg">
<g clip-path="url(#clip0_680_875)">
<rect width="393" height="852" fill="white"/>
<rect y="832" width="393" height="20" fill="white"/>
<rect x="134" y="840" width="125" height="4" rx="2" fill="black"/>
<rect width="393" height="54" fill="#F4F9F8"/>
<rect width="393" height="54" fill="white"/>
<g clip-path="url(#clip1_680_875)">
<path fill-rule="evenodd" clip-rule="evenodd" d="M296.271 24.104C298.758 24.1041 301.15 25.0262 302.952 26.6796C303.088 26.8073 303.305 26.8057 303.438 26.676L304.736 25.4126C304.804 25.3468 304.841 25.2577 304.841 25.1651C304.84 25.0724 304.801 24.9837 304.733 24.9187C300.002 20.544 292.538 20.544 287.807 24.9187C287.739 24.9837 287.7 25.0723 287.699 25.165C287.699 25.2577 287.736 25.3468 287.804 25.4126L289.102 26.676C289.235 26.8059 289.452 26.8075 289.588 26.6796C291.391 25.0261 293.783 24.104 296.271 24.104ZM296.267 28.3243C297.624 28.3242 298.933 28.8359 299.939 29.76C300.076 29.8912 300.29 29.8883 300.423 29.7536L301.71 28.4343C301.778 28.3651 301.815 28.2712 301.814 28.1737C301.813 28.0761 301.774 27.9831 301.705 27.9153C298.641 25.0244 293.896 25.0244 290.832 27.9153C290.763 27.9831 290.724 28.0762 290.723 28.1738C290.722 28.2713 290.759 28.3652 290.827 28.4343L292.114 29.7536C292.247 29.8883 292.461 29.8912 292.597 29.76C293.603 28.8365 294.911 28.3248 296.267 28.3243ZM298.792 31.1178C298.794 31.2232 298.757 31.3247 298.689 31.3985L296.512 33.8533C296.449 33.9254 296.362 33.966 296.271 33.966C296.18 33.966 296.093 33.9254 296.029 33.8533L293.852 31.3985C293.785 31.3247 293.748 31.2231 293.75 31.1177C293.752 31.0124 293.793 30.9126 293.863 30.842C295.253 29.5281 297.289 29.5281 298.679 30.842C298.749 30.9127 298.79 31.0125 298.792 31.1178Z" fill="black"/>
</g>
<g clip-path="url(#clip2_680_875)">
<path fill-rule="evenodd" clip-rule="evenodd" d="M332.2 22.6821C332.2 22.0491 331.722 21.5359 331.133 21.5359H330.067C329.478 21.5359 329 22.0491 329 22.6821V32.6161C329 33.2491 329.478 33.7623 330.067 33.7623H331.133C331.722 33.7623 332.2 33.2491 332.2 32.6161V22.6821ZM324.766 23.9812H325.833C326.422 23.9812 326.899 24.5067 326.899 25.1549V32.5886C326.899 33.2368 326.422 33.7623 325.833 33.7623H324.766C324.177 33.7623 323.699 33.2368 323.699 32.5886V25.1549C323.699 24.5067 324.177 23.9812 324.766 23.9812ZM320.434 26.6302H319.367C318.778 26.6302 318.301 27.1624 318.301 27.8189V32.5736C318.301 33.2301 318.778 33.7623 319.367 33.7623H320.434C321.023 33.7623 321.501 33.2301 321.501 32.5736V27.8189C321.501 27.1624 321.023 26.6302 320.434 26.6302ZM315.133 29.0755H314.067C313.478 29.0755 313 29.6001 313 30.2472V32.5906C313 33.2377 313.478 33.7623 314.067 33.7623H315.133C315.722 33.7623 316.2 33.2377 316.2 32.5906V30.2472C316.2 29.6001 315.722 29.0755 315.133 29.0755Z" fill="black"/>
</g>
<g clip-path="url(#clip3_680_875)">
<path opacity="0.35" d="M361.7 21.5H345.3C343.201 21.5 341.5 23.2013 341.5 25.3V29.7C341.5 31.7987 343.201 33.5 345.3 33.5H361.7C363.799 33.5 365.5 31.7987 365.5 29.7V25.3C365.5 23.2013 363.799 21.5 361.7 21.5Z" stroke="black"/>
<path opacity="0.4" d="M367 25.7811V29.8566C367.805 29.5114 368.328 28.7085 368.328 27.8189C368.328 26.9293 367.805 26.1263 367 25.7811Z" fill="black"/>
<path d="M361.5 23H345.5C344.119 23 343 24.1193 343 25.5V29.5C343 30.8807 344.119 32 345.5 32H361.5C362.881 32 364 30.8807 364 29.5V25.5C364 24.1193 362.881 23 361.5 23Z" fill="black"/>
</g>
<path d="M39.2955 22.3636V34H37.8864V23.8409H37.8182L34.9773 25.7273V24.2955L37.8864 22.3636H39.2955ZM46.733 22.3636V34H45.3239V23.8409H45.2557L42.4148 25.7273V24.2955L45.3239 22.3636H46.733ZM51.0795 32.5114C50.7992 32.5114 50.5587 32.411 50.358 32.2102C50.1572 32.0095 50.0568 31.7689 50.0568 31.4886C50.0568 31.2083 50.1572 30.9678 50.358 30.767C50.5587 30.5663 50.7992 30.4659 51.0795 30.4659C51.3598 30.4659 51.6004 30.5663 51.8011 30.767C52.0019 30.9678 52.1023 31.2083 52.1023 31.4886C52.1023 31.6742 52.0549 31.8447 51.9602 32C51.8693 32.1553 51.7462 32.2803 51.5909 32.375C51.4394 32.4659 51.2689 32.5114 51.0795 32.5114ZM51.0795 26.625C50.7992 26.625 50.5587 26.5246 50.358 26.3239C50.1572 26.1231 50.0568 25.8826 50.0568 25.6023C50.0568 25.322 50.1572 25.0814 50.358 24.8807C50.5587 24.6799 50.7992 24.5795 51.0795 24.5795C51.3598 24.5795 51.6004 24.6799 51.8011 24.8807C52.0019 25.0814 52.1023 25.322 52.1023 25.6023C52.1023 25.7879 52.0549 25.9583 51.9602 26.1136C51.8693 26.2689 51.7462 26.3939 51.5909 26.4886C51.4394 26.5795 51.2689 26.625 51.0795 26.625ZM58.5767 22.3636V34H57.1676V23.8409H57.0994L54.2585 25.7273V24.2955L57.1676 22.3636H58.5767ZM66.0142 22.3636V34H64.6051V23.8409H64.5369L61.696 25.7273V24.2955L64.6051 22.3636H66.0142ZM74.0653 34V22.3636H77.9972C78.91 22.3636 79.6563 22.5284 80.2358 22.858C80.8191 23.1837 81.2509 23.625 81.5312 24.1818C81.8116 24.7386 81.9517 25.3598 81.9517 26.0455C81.9517 26.7311 81.8116 27.3542 81.5312 27.9148C81.2547 28.4754 80.8267 28.9223 80.2472 29.2557C79.6676 29.5852 78.9252 29.75 78.0199 29.75H75.2017V28.5H77.9744C78.5994 28.5 79.1013 28.392 79.4801 28.1761C79.8589 27.9602 80.1335 27.6686 80.304 27.3011C80.4782 26.9299 80.5653 26.5114 80.5653 26.0455C80.5653 25.5795 80.4782 25.1629 80.304 24.7955C80.1335 24.428 79.857 24.1402 79.4744 23.9318C79.0919 23.7197 78.5843 23.6136 77.9517 23.6136H75.4744V34H74.0653ZM84.2216 22.3636H85.9034L89.858 32.0227H89.9943L93.9489 22.3636H95.6307V34H94.3125V25.1591H94.1989L90.5625 34H89.2898L85.6534 25.1591H85.5398V34H84.2216V22.3636Z" fill="black"/>
<g clip-path="url(#clip4_680_875)">
<path fill-rule="evenodd" clip-rule="evenodd" d="M296.271 24.104C298.758 24.1041 301.15 25.0262 302.952 26.6796C303.088 26.8073 303.305 26.8057 303.438 26.676L304.736 25.4126C304.804 25.3468 304.841 25.2577 304.841 25.1651C304.84 25.0724 304.801 24.9837 304.733 24.9187C300.002 20.544 292.538 20.544 287.807 24.9187C287.739 24.9837 287.7 25.0723 287.699 25.165C287.699 25.2577 287.736 25.3468 287.804 25.4126L289.102 26.676C289.235 26.8059 289.452 26.8075 289.588 26.6796C291.391 25.0261 293.783 24.104 296.271 24.104ZM296.267 28.3243C297.624 28.3242 298.933 28.8359 299.939 29.76C300.076 29.8912 300.29 29.8883 300.423 29.7536L301.71 28.4343C301.778 28.3651 301.815 28.2712 301.814 28.1737C301.813 28.0761 301.774 27.9831 301.705 27.9153C298.641 25.0244 293.896 25.0244 290.832 27.9153C290.763 27.9831 290.724 28.0762 290.723 28.1738C290.722 28.2713 290.759 28.3652 290.827 28.4343L292.114 29.7536C292.247 29.8883 292.461 29.8912 292.597 29.76C293.603 28.8365 294.911 28.3248 296.267 28.3243ZM298.792 31.1178C298.794 31.2232 298.757 31.3247 298.689 31.3985L296.512 33.8533C296.449 33.9254 296.362 33.966 296.271 33.966C296.18 33.966 296.093 33.9254 296.029 33.8533L293.852 31.3985C293.785 31.3247 293.748 31.2231 293.75 31.1177C293.752 31.0124 293.793 30.9126 293.863 30.842C295.253 29.5281 297.289 29.5281 298.679 30.842C298.749 30.9127 298.79 31.0125 298.792 31.1178Z" fill="black"/>
</g>
<g clip-path="url(#clip5_680_875)">
<path fill-rule="evenodd" clip-rule="evenodd" d="M332.2 22.6821C332.2 22.0491 331.722 21.5359 331.133 21.5359H330.067C329.478 21.5359 329 22.0491 329 22.6821V32.6161C329 33.2491 329.478 33.7623 330.067 33.7623H331.133C331.722 33.7623 332.2 33.2491 332.2 32.6161V22.6821ZM324.766 23.9812H325.833C326.422 23.9812 326.899 24.5067 326.899 25.1549V32.5886C326.899 33.2368 326.422 33.7623 325.833 33.7623H324.766C324.177 33.7623 323.699 33.2368 323.699 32.5886V25.1549C323.699 24.5067 324.177 23.9812 324.766 23.9812ZM320.434 26.6302H319.367C318.778 26.6302 318.301 27.1624 318.301 27.8189V32.5736C318.301 33.2301 318.778 33.7623 319.367 33.7623H320.434C321.023 33.7623 321.501 33.2301 321.501 32.5736V27.8189C321.501 27.1624 321.023 26.6302 320.434 26.6302ZM315.133 29.0755H314.067C313.478 29.0755 313 29.6001 313 30.2472V32.5906C313 33.2377 313.478 33.7623 314.067 33.7623H315.133C315.722 33.7623 316.2 33.2377 316.2 32.5906V30.2472C316.2 29.6001 315.722 29.0755 315.133 29.0755Z" fill="black"/>
</g>
<g clip-path="url(#clip6_680_875)">
<path opacity="0.35" d="M361.7 21.5H345.3C343.201 21.5 341.5 23.2013 341.5 25.3V29.7C341.5 31.7987 343.201 33.5 345.3 33.5H361.7C363.799 33.5 365.5 31.7987 365.5 29.7V25.3C365.5 23.2013 363.799 21.5 361.7 21.5Z" stroke="black"/>
<path opacity="0.4" d="M367 25.7811V29.8566C367.805 29.5114 368.328 28.7085 368.328 27.8189C368.328 26.9293 367.805 26.1263 367 25.7811Z" fill="black"/>
<path d="M361.5 23H345.5C344.119 23 343 24.1193 343 25.5V29.5C343 30.8807 344.119 32 345.5 32H361.5C362.881 32 364 30.8807 364 29.5V25.5C364 24.1193 362.881 23 361.5 23Z" fill="black"/>
</g>
<path d="M39.2955 22.3636V34H37.8864V23.8409H37.8182L34.9773 25.7273V24.2955L37.8864 22.3636H39.2955ZM46.733 22.3636V34H45.3239V23.8409H45.2557L42.4148 25.7273V24.2955L45.3239 22.3636H46.733ZM51.0795 32.5114C50.7992 32.5114 50.5587 32.411 50.358 32.2102C50.1572 32.0095 50.0568 31.7689 50.0568 31.4886C50.0568 31.2083 50.1572 30.9678 50.358 30.767C50.5587 30.5663 50.7992 30.4659 51.0795 30.4659C51.3598 30.4659 51.6004 30.5663 51.8011 30.767C52.0019 30.9678 52.1023 31.2083 52.1023 31.4886C52.1023 31.6742 52.0549 31.8447 51.9602 32C51.8693 32.1553 51.7462 32.2803 51.5909 32.375C51.4394 32.4659 51.2689 32.5114 51.0795 32.5114ZM51.0795 26.625C50.7992 26.625 50.5587 26.5246 50.358 26.3239C50.1572 26.1231 50.0568 25.8826 50.0568 25.6023C50.0568 25.322 50.1572 25.0814 50.358 24.8807C50.5587 24.6799 50.7992 24.5795 51.0795 24.5795C51.3598 24.5795 51.6004 24.6799 51.8011 24.8807C52.0019 25.0814 52.1023 25.322 52.1023 25.6023C52.1023 25.7879 52.0549 25.9583 51.9602 26.1136C51.8693 26.2689 51.7462 26.3939 51.5909 26.4886C51.4394 26.5795 51.2689 26.625 51.0795 26.625ZM58.5767 22.3636V34H57.1676V23.8409H57.0994L54.2585 25.7273V24.2955L57.1676 22.3636H58.5767ZM66.0142 22.3636V34H64.6051V23.8409H64.5369L61.696 25.7273V24.2955L64.6051 22.3636H66.0142ZM74.0653 34V22.3636H77.9972C78.91 22.3636 79.6563 22.5284 80.2358 22.858C80.8191 23.1837 81.2509 23.625 81.5312 24.1818C81.8116 24.7386 81.9517 25.3598 81.9517 26.0455C81.9517 26.7311 81.8116 27.3542 81.5312 27.9148C81.2547 28.4754 80.8267 28.9223 80.2472 29.2557C79.6676 29.5852 78.9252 29.75 78.0199 29.75H75.2017V28.5H77.9744C78.5994 28.5 79.1013 28.392 79.4801 28.1761C79.8589 27.9602 80.1335 27.6686 80.304 27.3011C80.4782 26.9299 80.5653 26.5114 80.5653 26.0455C80.5653 25.5795 80.4782 25.1629 80.304 24.7955C80.1335 24.428 79.857 24.1402 79.4744 23.9318C79.0919 23.7197 78.5843 23.6136 77.9517 23.6136H75.4744V34H74.0653ZM84.2216 22.3636H85.9034L89.858 32.0227H89.9943L93.9489 22.3636H95.6307V34H94.3125V25.1591H94.1989L90.5625 34H89.2898L85.6534 25.1591H85.5398V34H84.2216V22.3636Z" fill="black"/>
<g filter="url(#filter0_f_680_875)">
<rect x="197" width="196" height="852" fill="url(#paint0_linear_680_875)"/>
</g>
</g>
<defs>
<filter id="filter0_f_680_875" x="-3" y="-200" width="596" height="1252" filterUnits="userSpaceOnUse" color-interpolation-filters="sRGB">
<feFlood flood-opacity="0" result="BackgroundImageFix"/>
<feBlend mode="normal" in="SourceGraphic" in2="BackgroundImageFix" result="shape"/>
<feGaussianBlur stdDeviation="100" result="effect1_foregroundBlur_680_875"/>
</filter>
<linearGradient id="paint0_linear_680_875" x1="496" y1="652" x2="-154" y2="378.5" gradientUnits="userSpaceOnUse">
<stop stop-color="#50B3BA"/>
<stop offset="1" stop-color="#50B3BA" stop-opacity="0"/>
</linearGradient>
<clipPath id="clip0_680_875">
<rect width="393" height="852" fill="white"/>
</clipPath>
<clipPath id="clip1_680_875">
<rect width="18" height="13" fill="white" transform="translate(287 21)"/>
</clipPath>
<clipPath id="clip2_680_875">
<rect width="20" height="13" fill="white" transform="translate(313 21)"/>
</clipPath>
<clipPath id="clip3_680_875">
<rect width="28" height="13" fill="white" transform="translate(341 21)"/>
</clipPath>
<clipPath id="clip4_680_875">
<rect width="18" height="13" fill="white" transform="translate(287 21)"/>
</clipPath>
<clipPath id="clip5_680_875">
<rect width="20" height="13" fill="white" transform="translate(313 21)"/>
</clipPath>
<clipPath id="clip6_680_875">
<rect width="28" height="13" fill="white" transform="translate(341 21)"/>
</clipPath>
</defs>
</svg>
